<mxfile host="Electron" modified="2024-02-09T21:54:14.940Z" agent="Mozilla/5.0 (Windows NT 10.0; Win64; x64) AppleWebKit/537.36 (KHTML, like Gecko) draw.io/23.0.2 Chrome/120.0.6099.109 Electron/28.1.0 Safari/537.36" etag="Svlsm8wXXDeicdCyZfsb" version="23.0.2" type="device">
  <diagram name="Page-1" id="_e8--MD4I2RdXMotHUFY">
    <mxGraphModel dx="1247" dy="727" grid="1" gridSize="10" guides="1" tooltips="1" connect="1" arrows="1" fold="1" page="1" pageScale="1" pageWidth="1200" pageHeight="1920" math="0" shadow="0">
      <root>
        <mxCell id="0" />
        <mxCell id="1" parent="0" />
        <mxCell id="4O6X_MG_T0VSw0H8mTDl-3" value="" style="edgeStyle=orthogonalEdgeStyle;rounded=0;orthogonalLoop=1;jettySize=auto;html=1;" edge="1" parent="1" source="4O6X_MG_T0VSw0H8mTDl-1" target="4O6X_MG_T0VSw0H8mTDl-2">
          <mxGeometry relative="1" as="geometry" />
        </mxCell>
        <mxCell id="4O6X_MG_T0VSw0H8mTDl-1" value="Start" style="strokeWidth=2;html=1;shape=mxgraph.flowchart.start_1;whiteSpace=wrap;" vertex="1" parent="1">
          <mxGeometry x="550" y="180" width="100" height="60" as="geometry" />
        </mxCell>
        <mxCell id="4O6X_MG_T0VSw0H8mTDl-7" value="" style="edgeStyle=orthogonalEdgeStyle;rounded=0;orthogonalLoop=1;jettySize=auto;html=1;" edge="1" parent="1" source="4O6X_MG_T0VSw0H8mTDl-2" target="4O6X_MG_T0VSw0H8mTDl-6">
          <mxGeometry relative="1" as="geometry" />
        </mxCell>
        <mxCell id="4O6X_MG_T0VSw0H8mTDl-2" value="Declarations&lt;br&gt;&lt;span style=&quot;white-space: pre;&quot;&gt;&#x9;&lt;/span&gt;num guess&lt;br&gt;&lt;span style=&quot;white-space: pre;&quot;&gt;&#x9;&lt;/span&gt;num randonNum" style="whiteSpace=wrap;html=1;strokeWidth=2;align=left;" vertex="1" parent="1">
          <mxGeometry x="530" y="260" width="140" height="60" as="geometry" />
        </mxCell>
        <mxCell id="4O6X_MG_T0VSw0H8mTDl-9" value="" style="edgeStyle=orthogonalEdgeStyle;rounded=0;orthogonalLoop=1;jettySize=auto;html=1;" edge="1" parent="1" source="4O6X_MG_T0VSw0H8mTDl-6" target="4O6X_MG_T0VSw0H8mTDl-8">
          <mxGeometry relative="1" as="geometry" />
        </mxCell>
        <mxCell id="4O6X_MG_T0VSw0H8mTDl-6" value="input guess" style="shape=parallelogram;perimeter=parallelogramPerimeter;whiteSpace=wrap;html=1;fixedSize=1;align=center;strokeWidth=2;" vertex="1" parent="1">
          <mxGeometry x="540" y="350" width="120" height="40" as="geometry" />
        </mxCell>
        <mxCell id="4O6X_MG_T0VSw0H8mTDl-11" value="" style="edgeStyle=orthogonalEdgeStyle;rounded=0;orthogonalLoop=1;jettySize=auto;html=1;" edge="1" parent="1" source="4O6X_MG_T0VSw0H8mTDl-8" target="4O6X_MG_T0VSw0H8mTDl-10">
          <mxGeometry relative="1" as="geometry" />
        </mxCell>
        <mxCell id="4O6X_MG_T0VSw0H8mTDl-20" value="Yes" style="edgeLabel;html=1;align=center;verticalAlign=middle;resizable=0;points=[];" vertex="1" connectable="0" parent="4O6X_MG_T0VSw0H8mTDl-11">
          <mxGeometry x="-0.4138" relative="1" as="geometry">
            <mxPoint as="offset" />
          </mxGeometry>
        </mxCell>
        <mxCell id="4O6X_MG_T0VSw0H8mTDl-8" value="guess != randomNum" style="rhombus;whiteSpace=wrap;html=1;strokeWidth=2;" vertex="1" parent="1">
          <mxGeometry x="545" y="430" width="110" height="60" as="geometry" />
        </mxCell>
        <mxCell id="4O6X_MG_T0VSw0H8mTDl-15" value="" style="edgeStyle=orthogonalEdgeStyle;rounded=0;orthogonalLoop=1;jettySize=auto;html=1;exitX=0;exitY=0.5;exitDx=0;exitDy=0;" edge="1" parent="1" source="4O6X_MG_T0VSw0H8mTDl-10" target="4O6X_MG_T0VSw0H8mTDl-14">
          <mxGeometry relative="1" as="geometry" />
        </mxCell>
        <mxCell id="4O6X_MG_T0VSw0H8mTDl-19" value="No" style="edgeLabel;html=1;align=center;verticalAlign=middle;resizable=0;points=[];" vertex="1" connectable="0" parent="4O6X_MG_T0VSw0H8mTDl-15">
          <mxGeometry x="-0.6034" y="1" relative="1" as="geometry">
            <mxPoint as="offset" />
          </mxGeometry>
        </mxCell>
        <mxCell id="4O6X_MG_T0VSw0H8mTDl-17" style="edgeStyle=orthogonalEdgeStyle;rounded=0;orthogonalLoop=1;jettySize=auto;html=1;exitX=1;exitY=0.5;exitDx=0;exitDy=0;entryX=0.5;entryY=0;entryDx=0;entryDy=0;" edge="1" parent="1" source="4O6X_MG_T0VSw0H8mTDl-10" target="4O6X_MG_T0VSw0H8mTDl-16">
          <mxGeometry relative="1" as="geometry" />
        </mxCell>
        <mxCell id="4O6X_MG_T0VSw0H8mTDl-18" value="Yes" style="edgeLabel;html=1;align=center;verticalAlign=middle;resizable=0;points=[];" vertex="1" connectable="0" parent="4O6X_MG_T0VSw0H8mTDl-17">
          <mxGeometry x="-0.5667" relative="1" as="geometry">
            <mxPoint as="offset" />
          </mxGeometry>
        </mxCell>
        <mxCell id="4O6X_MG_T0VSw0H8mTDl-10" value="randomNum &amp;gt; guess" style="rhombus;whiteSpace=wrap;html=1;strokeWidth=2;" vertex="1" parent="1">
          <mxGeometry x="666" y="510" width="110" height="60" as="geometry" />
        </mxCell>
        <mxCell id="4O6X_MG_T0VSw0H8mTDl-14" value="output &quot;To High&quot;" style="shape=parallelogram;perimeter=parallelogramPerimeter;whiteSpace=wrap;html=1;fixedSize=1;strokeWidth=2;" vertex="1" parent="1">
          <mxGeometry x="560" y="600" width="120" height="40" as="geometry" />
        </mxCell>
        <mxCell id="4O6X_MG_T0VSw0H8mTDl-16" value="output &quot;To Low&quot;" style="shape=parallelogram;perimeter=parallelogramPerimeter;whiteSpace=wrap;html=1;fixedSize=1;strokeWidth=2;" vertex="1" parent="1">
          <mxGeometry x="760" y="600" width="120" height="40" as="geometry" />
        </mxCell>
        <mxCell id="4O6X_MG_T0VSw0H8mTDl-26" value="" style="endArrow=none;html=1;rounded=0;entryX=0.5;entryY=1;entryDx=0;entryDy=0;" edge="1" parent="1" target="4O6X_MG_T0VSw0H8mTDl-14">
          <mxGeometry width="50" height="50" relative="1" as="geometry">
            <mxPoint x="620" y="680" as="sourcePoint" />
            <mxPoint x="610" y="660" as="targetPoint" />
          </mxGeometry>
        </mxCell>
        <mxCell id="4O6X_MG_T0VSw0H8mTDl-27" value="" style="endArrow=none;html=1;rounded=0;entryX=0.5;entryY=1;entryDx=0;entryDy=0;" edge="1" parent="1" target="4O6X_MG_T0VSw0H8mTDl-16">
          <mxGeometry width="50" height="50" relative="1" as="geometry">
            <mxPoint x="820" y="680" as="sourcePoint" />
            <mxPoint x="810" y="650" as="targetPoint" />
          </mxGeometry>
        </mxCell>
        <mxCell id="4O6X_MG_T0VSw0H8mTDl-28" value="" style="endArrow=none;html=1;rounded=0;" edge="1" parent="1">
          <mxGeometry width="50" height="50" relative="1" as="geometry">
            <mxPoint x="620" y="680" as="sourcePoint" />
            <mxPoint x="820" y="680" as="targetPoint" />
          </mxGeometry>
        </mxCell>
        <mxCell id="4O6X_MG_T0VSw0H8mTDl-29" value="" style="endArrow=classic;html=1;rounded=0;entryX=0.5;entryY=0;entryDx=0;entryDy=0;" edge="1" parent="1" target="4O6X_MG_T0VSw0H8mTDl-30">
          <mxGeometry width="50" height="50" relative="1" as="geometry">
            <mxPoint x="720" y="680" as="sourcePoint" />
            <mxPoint x="720" y="700" as="targetPoint" />
          </mxGeometry>
        </mxCell>
        <mxCell id="4O6X_MG_T0VSw0H8mTDl-30" value="input guess" style="shape=parallelogram;perimeter=parallelogramPerimeter;whiteSpace=wrap;html=1;fixedSize=1;align=center;strokeWidth=2;" vertex="1" parent="1">
          <mxGeometry x="660" y="700" width="120" height="40" as="geometry" />
        </mxCell>
        <mxCell id="4O6X_MG_T0VSw0H8mTDl-31" value="" style="endArrow=none;html=1;rounded=0;exitX=1;exitY=0.5;exitDx=0;exitDy=0;" edge="1" parent="1" source="4O6X_MG_T0VSw0H8mTDl-30">
          <mxGeometry width="50" height="50" relative="1" as="geometry">
            <mxPoint x="790" y="760" as="sourcePoint" />
            <mxPoint x="920" y="720" as="targetPoint" />
          </mxGeometry>
        </mxCell>
        <mxCell id="4O6X_MG_T0VSw0H8mTDl-32" value="" style="endArrow=none;html=1;rounded=0;" edge="1" parent="1">
          <mxGeometry width="50" height="50" relative="1" as="geometry">
            <mxPoint x="920" y="720" as="sourcePoint" />
            <mxPoint x="920" y="410" as="targetPoint" />
          </mxGeometry>
        </mxCell>
        <mxCell id="4O6X_MG_T0VSw0H8mTDl-33" value="" style="endArrow=classic;html=1;rounded=0;" edge="1" parent="1">
          <mxGeometry width="50" height="50" relative="1" as="geometry">
            <mxPoint x="920" y="410" as="sourcePoint" />
            <mxPoint x="600" y="410" as="targetPoint" />
          </mxGeometry>
        </mxCell>
        <mxCell id="4O6X_MG_T0VSw0H8mTDl-34" value="" style="endArrow=classic;html=1;rounded=0;exitX=0.5;exitY=1;exitDx=0;exitDy=0;" edge="1" parent="1" source="4O6X_MG_T0VSw0H8mTDl-8">
          <mxGeometry width="50" height="50" relative="1" as="geometry">
            <mxPoint x="520" y="530" as="sourcePoint" />
            <mxPoint x="600" y="510" as="targetPoint" />
          </mxGeometry>
        </mxCell>
        <mxCell id="4O6X_MG_T0VSw0H8mTDl-35" value="Stop" style="ellipse;whiteSpace=wrap;html=1;" vertex="1" parent="1">
          <mxGeometry x="578" y="510" width="45" height="30" as="geometry" />
        </mxCell>
        <mxCell id="4O6X_MG_T0VSw0H8mTDl-36" value="6." style="text;html=1;strokeColor=none;fillColor=none;align=center;verticalAlign=middle;whiteSpace=wrap;rounded=0;" vertex="1" parent="1">
          <mxGeometry x="485" y="170" width="60" height="30" as="geometry" />
        </mxCell>
        <mxCell id="4O6X_MG_T0VSw0H8mTDl-38" value="Declarations" style="strokeWidth=2;html=1;shape=mxgraph.flowchart.annotation_2;align=left;labelPosition=right;pointerEvents=1;" vertex="1" parent="1">
          <mxGeometry x="695" y="260" width="50" height="60" as="geometry" />
        </mxCell>
        <mxCell id="4O6X_MG_T0VSw0H8mTDl-40" value="Creating a priming input" style="strokeWidth=2;html=1;shape=mxgraph.flowchart.annotation_2;align=left;labelPosition=right;pointerEvents=1;" vertex="1" parent="1">
          <mxGeometry x="695" y="340" width="50" height="50" as="geometry" />
        </mxCell>
      </root>
    </mxGraphModel>
  </diagram>
</mxfile>
